<?xml version="1.0" encoding="UTF-8" standalone="no"?><!DOCTYPE svg PUBLIC "-//W3C//DTD SVG 1.1//EN" "http://www.w3.org/Graphics/SVG/1.1/DTD/svg11.dtd"><!-- Generated by graphviz version 2.40.1 (20161225.0304)
 --><!-- Title: Book.py Pages: 1 --><svg xmlns="http://www.w3.org/2000/svg" xmlns:xlink="http://www.w3.org/1999/xlink" width="1012pt" height="318pt" viewBox="0.00 0.00 1011.83 318.40">
<g id="graph0" class="graph" transform="scale(1 1) rotate(0) translate(4 314.4)">
<title>Book.py</title>
<polygon fill="#ffffff" stroke="transparent" points="-4,4 -4,-314.4 1007.8305,-314.4 1007.8305,4 -4,4"/>
<!-- Account.Account -->
<g id="node1" class="node">
<title>Account.Account</title>
<polygon fill="none" stroke="#000000" points="300.1585,-87.1 300.1585,-136.7 487.9889,-136.7 487.9889,-87.1 300.1585,-87.1"/>
<text text-anchor="middle" x="394.0737" y="-120.1" font-family="Times,serif" font-size="14.00" fill="#000000">Account.Account</text>
<polyline fill="none" stroke="#000000" points="300.1585,-111.9 487.9889,-111.9 "/>
<text text-anchor="middle" x="394.0737" y="-95.3" font-family="Times,serif" font-size="14.00" fill="#000000">name, id, pwd, library, query()</text>
</g>
<!-- Account.Login -->
<g id="node3" class="node">
<title>Account.Login</title>
<polygon fill="none" stroke="#000000" points="307.1662,-.5 307.1662,-50.1 480.9812,-50.1 480.9812,-.5 307.1662,-.5"/>
<text text-anchor="middle" x="394.0737" y="-33.5" font-family="Times,serif" font-size="14.00" fill="#000000">Account.Login</text>
<polyline fill="none" stroke="#000000" points="307.1662,-25.3 480.9812,-25.3 "/>
<text text-anchor="middle" x="394.0737" y="-8.7" font-family="Times,serif" font-size="14.00" fill="#000000">addAccount(), getAccount()</text>
</g>
<!-- Account.Account&#45;&gt;Account.Login -->
<g id="edge4" class="edge">
<title>Account.Account-&gt;Account.Login</title>
<path fill="none" stroke="#595959" stroke-dasharray="5,2" d="M394.0737,-76.8517C394.0737,-76.8517 394.0737,-50.292 394.0737,-50.292"/>
<polygon fill="#595959" stroke="#595959" points="390.5738,-76.8517 394.0737,-86.8517 397.5738,-76.8517 390.5738,-76.8517"/>
</g>
<!-- Account.Admin -->
<g id="node2" class="node">
<title>Account.Admin</title>
<polygon fill="none" stroke="#000000" points="0,-173.7 0,-223.3 288.1474,-223.3 288.1474,-173.7 0,-173.7"/>
<text text-anchor="middle" x="144.0737" y="-206.7" font-family="Times,serif" font-size="14.00" fill="#000000">Account.Admin</text>
<polyline fill="none" stroke="#000000" points="0,-198.5 288.1474,-198.5 "/>
<text text-anchor="middle" x="144.0737" y="-181.9" font-family="Times,serif" font-size="14.00" fill="#000000">sortList(), printList(), addBook(), removeBook()</text>
</g>
<!-- Account.Admin&#45;&gt;Account.Account -->
<g id="edge1" class="edge">
<title>Account.Admin-&gt;Account.Account</title>
<path fill="none" stroke="#595959" d="M144.0737,-163.6601C144.0737,-163.6601 144.0737,-111 144.0737,-111 144.0737,-111 229.0482,-111 299.9157,-111"/>
<polygon fill="#595959" stroke="#595959" points="140.5738,-163.66 144.0737,-173.6601 147.5738,-163.6601 140.5738,-163.66"/>
</g>
<!-- Account.User -->
<g id="node4" class="node">
<title>Account.User</title>
<polygon fill="none" stroke="#000000" points="305.9888,-173.7 305.9888,-223.3 482.1586,-223.3 482.1586,-173.7 305.9888,-173.7"/>
<text text-anchor="middle" x="394.0737" y="-206.7" font-family="Times,serif" font-size="14.00" fill="#000000">Account.User</text>
<polyline fill="none" stroke="#000000" points="305.9888,-198.5 482.1586,-198.5 "/>
<text text-anchor="middle" x="394.0737" y="-181.9" font-family="Times,serif" font-size="14.00" fill="#000000">borrowBook(), returnBook()</text>
</g>
<!-- Account.User&#45;&gt;Account.Account -->
<g id="edge2" class="edge">
<title>Account.User-&gt;Account.Account</title>
<path fill="none" stroke="#595959" d="M394.0737,-163.4517C394.0737,-163.4517 394.0737,-136.892 394.0737,-136.892"/>
<polygon fill="#595959" stroke="#595959" points="390.5738,-163.4517 394.0737,-173.4517 397.5738,-163.4517 390.5738,-163.4517"/>
</g>
<!-- Book.Book -->
<g id="node5" class="node">
<title>Book.Book</title>
<polygon fill="none" stroke="#000000" points="697.8065,-260.3 697.8065,-309.9 806.3409,-309.9 806.3409,-260.3 697.8065,-260.3"/>
<text text-anchor="middle" x="752.0737" y="-293.3" font-family="Times,serif" font-size="14.00" fill="#000000">Book.Book</text>
<polyline fill="none" stroke="#000000" points="697.8065,-285.1 806.3409,-285.1 "/>
<text text-anchor="middle" x="752.0737" y="-268.5" font-family="Times,serif" font-size="14.00" fill="#000000">title, isAvailable</text>
</g>
<!-- Book.Library -->
<g id="node6" class="node">
<title>Book.Library</title>
<polygon fill="none" stroke="#000000" points="500.3169,-173.7 500.3169,-223.3 1003.8305,-223.3 1003.8305,-173.7 500.3169,-173.7"/>
<text text-anchor="middle" x="752.0737" y="-206.7" font-family="Times,serif" font-size="14.00" fill="#000000">Book.Library</text>
<polyline fill="none" stroke="#000000" points="500.3169,-198.5 1003.8305,-198.5 "/>
<text text-anchor="middle" x="752.0737" y="-181.9" font-family="Times,serif" font-size="14.00" fill="#000000">query(), addBook(), removeBook(), sortList(), printList(), borrowBook(), returnBook()</text>
</g>
<!-- Book.Book&#45;&gt;Book.Library -->
<g id="edge3" class="edge">
<title>Book.Book-&gt;Book.Library</title>
<path fill="none" stroke="#595959" stroke-dasharray="5,2" d="M752.0737,-250.0517C752.0737,-250.0517 752.0737,-223.492 752.0737,-223.492"/>
<polygon fill="#595959" stroke="#595959" points="748.5738,-250.0517 752.0737,-260.0517 755.5738,-250.0517 748.5738,-250.0517"/>
</g>
<!-- Book.Library&#45;&gt;Account.Account -->
<g id="edge5" class="edge">
<title>Book.Library-&gt;Account.Account</title>
<path fill="none" stroke="#595959" stroke-dasharray="5,2" d="M752.0737,-163.6601C752.0737,-163.6601 752.0737,-111 752.0737,-111 752.0737,-111 594.2032,-111 488.134,-111"/>
<polygon fill="#595959" stroke="#595959" points="748.5738,-163.66 752.0737,-173.6601 755.5738,-163.6601 748.5738,-163.66"/>
</g>
</g>
</svg>